<svg xmlns="http://www.w3.org/2000/svg" viewBox="0 0 512 512" role="img" aria-label="Kind Reminders">
  <rect width="512" height="512" rx="112" fill="#2f6f67"/>
  <path fill="#fff1b8" d="M122 148c0-28 22-50 50-50h168c28 0 50 22 50 50v234c0 28-22 50-50 50H172c-28 0-50-22-50-50V148Z"/>
  <path fill="#ffffff" d="M164 190c0-20 16-36 36-36h112c20 0 36 16 36 36v148c0 20-16 36-36 36H200c-20 0-36-16-36-36V190Z"/>
  <path fill="#f2994a" d="M202 224h108v32H202z"/>
  <path fill="#27ae60" d="M202 290h76v32h-76z"/>
  <path fill="#eb5757" d="M306 286h48v48h-48z"/>
  <path fill="#2f6f67" d="M216 74h80v84h-80z"/>
</svg>
